<?xml version="1.0" standalone="no"?>
<!DOCTYPE svg PUBLIC "-//W3C//DTD SVG 20010904//EN"
 "http://www.w3.org/TR/2001/REC-SVG-20010904/DTD/svg10.dtd">
<svg version="1.0" xmlns="http://www.w3.org/2000/svg"
 width="256.000000pt" height="256.000000pt" viewBox="0 0 256.000000 256.000000"
 preserveAspectRatio="xMidYMid meet">

<g transform="translate(0.000000,256.000000) scale(0.100000,-0.100000)"
fill="#000000" stroke="none">
<path d="M0 1280 l0 -1280 1280 0 1280 0 0 664 c0 522 -3 665 -12 669 -10 4
-10 6 0 6 9 1 12 130 12 611 l0 610 -1280 0 -1280 0 0 -1280z m1162 998 c-6
-6 -16 -7 -22 -3 -9 6 -9 9 1 16 17 10 34 0 21 -13z m273 13 c3 -5 1 -12 -5
-16 -5 -3 -10 1 -10 9 0 18 6 21 15 7z m-129 -22 c0 -10 -4 -15 -9 -12 -5 3
-23 -8 -40 -23 l-32 -29 29 32 c15 17 26 35 23 40 -3 5 2 9 12 9 9 0 17 -8 17
-17z m-46 -4 c0 -12 -19 -12 -23 0 -4 9 -1 12 9 8 7 -3 14 -7 14 -8z m-96 -46
c-3 -5 -10 -7 -15 -3 -5 3 -7 10 -3 15 3 5 10 7 15 3 5 -3 7 -10 3 -15z m271
12 c3 -5 2 -12 -3 -15 -5 -3 -9 1 -9 9 0 17 3 19 12 6z m-453 -33 c-15 -15
-16 -32 -2 -23 6 3 10 1 10 -4 0 -6 -5 -11 -11 -11 -8 0 -7 -6 2 -17 13 -16
12 -17 -3 -4 -10 7 -18 21 -18 30 0 16 18 41 29 41 3 0 0 -5 -7 -12z m289 -61
c-10 -9 -11 -8 -5 6 3 10 9 15 12 12 3 -3 0 -11 -7 -18z m-5 -49 c18 -23 18
-23 -1 -6 -18 17 -20 17 -39 0 -21 -17 -21 -17 -2 6 11 12 20 22 21 22 1 0 10
-10 21 -22z m56 -1 c-12 -13 -22 -26 -22 -29 0 -4 37 -34 83 -69 45 -34 81
-65 80 -68 -2 -3 2 -21 8 -39 6 -18 9 -36 6 -38 -3 -3 -11 14 -18 37 -11 34
-30 56 -92 107 l-77 64 -63 -53 c-75 -63 -107 -96 -107 -111 0 -6 10 -3 22 8
15 13 12 7 -7 -18 -27 -34 -47 -46 -29 -17 4 7 9 24 10 37 2 17 -1 22 -12 18
-29 -11 -12 3 39 32 28 17 84 60 122 96 70 65 97 86 57 43z m-160 -49 c-8 -8
-9 -4 -5 13 4 13 8 18 11 10 2 -7 -1 -18 -6 -23z m57 9 c-2 -2 -22 -15 -44
-31 l-40 -27 35 30 c19 17 39 31 44 31 5 0 7 -1 5 -3z m214 -35 c15 -1 17 -9
3 -9 -8 0 -27 11 -43 24 l-28 25 30 -20 c17 -11 34 -20 38 -20z m-542 -15
c-13 -13 -26 -3 -16 12 3 6 11 8 17 5 6 -4 6 -10 -1 -17z m-201 10 c0 -2 -12
-14 -27 -28 l-28 -24 24 28 c23 25 31 32 31 24z m630 -7 c0 -5 -2 -10 -4 -10
-3 0 -8 5 -11 10 -3 6 -1 10 4 10 6 0 11 -4 11 -10z m-15 -30 c-3 -5 -12 -10
-18 -10 -7 0 -6 4 3 10 19 12 23 12 15 0z m211 -4 c10 -8 17 -17 14 -19 -3 -3
-16 3 -29 14 -27 22 -15 26 15 5z m-686 -6 c0 -5 -4 -10 -10 -10 -5 0 -10 5
-10 10 0 6 5 10 10 10 6 0 10 -4 10 -10z m937 -5 c0 -8 -4 -12 -9 -9 -5 3 -6
10 -3 15 9 13 12 11 12 -6z m-1137 -8 c0 -2 -10 -12 -22 -23 l-23 -19 19 23
c18 21 26 27 26 19z m719 0 c-2 -1 -15 -11 -29 -22 l-25 -20 19 23 c11 12 24
22 29 22 6 0 8 -1 6 -3z m-389 -11 c0 -2 -7 -7 -16 -10 -8 -3 -12 -2 -9 4 6
10 25 14 25 6z m550 -32 c0 -2 -9 0 -20 6 -11 6 -20 13 -20 16 0 2 9 0 20 -6
11 -6 20 -13 20 -16z m325 17 c3 -5 2 -12 -3 -15 -5 -3 -9 1 -9 9 0 17 3 19
12 6z m-1305 -16 c14 -8 21 -14 15 -14 -5 0 -21 6 -35 14 -14 8 -20 14 -15 14
6 0 21 -6 35 -14z m64 -30 c11 -8 16 -15 10 -15 -5 0 -18 7 -28 15 -11 8 -16
15 -10 15 5 0 18 -7 28 -15z m758 -19 c-17 -19 -35 -43 -40 -53 -6 -10 -13
-15 -16 -13 -5 6 71 100 81 100 3 0 -9 -15 -25 -34z m677 30 c-10 -9 -69 -36
-69 -32 0 7 52 35 64 36 5 0 7 -2 5 -4z m-784 -36 c10 -11 16 -20 13 -20 -3 0
-13 9 -23 20 -10 11 -16 20 -13 20 3 0 13 -9 23 -20z m-325 -5 c0 -2 -10 -9
-22 -15 -22 -11 -22 -10 -4 4 21 17 26 19 26 11z m1015 -5 c-3 -5 -12 -10 -18
-10 -7 0 -6 4 3 10 19 12 23 12 15 0z m-560 -110 c-17 -19 -17 -21 1 -42 l18
-23 -24 22 c-23 22 -23 23 -5 43 10 11 20 20 23 20 3 0 -3 -9 -13 -20z m-514
-7 c13 -16 12 -17 -3 -4 -10 7 -18 15 -18 17 0 8 8 3 21 -13z m389 13 c0 -2
-8 -10 -17 -17 -16 -13 -17 -12 -4 4 13 16 21 21 21 13z m-40 -49 c0 -2 -19
-21 -42 -42 l-43 -40 40 43 c36 39 45 47 45 39z m603 -4 c-7 -2 -19 -2 -25 0
-7 3 -2 5 12 5 14 0 19 -2 13 -5z m-542 -20 c13 -16 12 -17 -3 -4 -10 7 -18
15 -18 17 0 8 8 3 21 -13z m19 -33 c-23 -27 -47 -53 -53 -57 -7 -4 10 19 37
50 27 31 51 57 53 57 3 0 -14 -22 -37 -50z m212 -85 c12 -23 7 -18 -53 50
l-43 50 43 -40 c23 -22 47 -49 53 -60z m-567 55 c9 -16 13 -30 11 -30 -3 0
-12 14 -21 30 -9 17 -13 30 -11 30 3 0 12 -13 21 -30z m195 -3 c0 -2 -15 -16
-32 -33 l-33 -29 29 33 c28 30 36 37 36 29z m-145 -87 c9 -16 13 -30 11 -30
-3 0 -12 14 -21 30 -9 17 -13 30 -11 30 3 0 12 -13 21 -30z m-671 -26 c4 -11
-5 -14 -42 -12 -35 1 -39 2 -15 5 23 3 30 8 26 19 -3 10 0 12 10 8 9 -3 18
-12 21 -20z m2013 -10 c-3 -3 -12 -4 -19 -1 -8 3 -5 6 6 6 11 1 17 -2 13 -5z
m-1297 -44 c6 -11 8 -20 6 -20 -3 0 -10 9 -16 20 -6 11 -8 20 -6 20 3 0 10 -9
16 -20z m825 -20 c-9 -16 -18 -30 -21 -30 -2 0 2 14 11 30 9 17 18 30 21 30 2
0 -2 -13 -11 -30z m-460 -10 c-9 -16 -18 -30 -21 -30 -2 0 2 14 11 30 9 17 18
30 21 30 2 0 -2 -13 -11 -30z m-320 -50 c9 -16 13 -30 11 -30 -3 0 -12 14 -21
30 -9 17 -13 30 -11 30 3 0 12 -13 21 -30z m745 0 c-6 -11 -13 -20 -16 -20 -2
0 0 9 6 20 6 11 13 20 16 20 2 0 0 -9 -6 -20z m-1392 -17 c-10 -2 -26 -2 -35
0 -10 3 -2 5 17 5 19 0 27 -2 18 -5z m119 1 c-3 -3 -12 -4 -19 -1 -8 3 -5 6 6
6 11 1 17 -2 13 -5z m50 0 c-3 -3 -12 -4 -19 -1 -8 3 -5 6 6 6 11 1 17 -2 13
-5z m1681 -1 c-49 -2 -127 -2 -175 0 -49 1 -9 3 87 3 96 0 136 -2 88 -3z m155
0 c-13 -2 -33 -2 -45 0 -13 2 -3 4 22 4 25 0 35 -2 23 -4z m85 0 c-10 -2 -28
-2 -40 0 -13 2 -5 4 17 4 22 1 32 -1 23 -4z m-1403 -53 c9 -16 13 -30 11 -30
-3 0 -12 14 -21 30 -9 17 -13 30 -11 30 3 0 12 -13 21 -30z m215 0 c-6 -11
-13 -20 -16 -20 -2 0 0 9 6 20 6 11 13 20 16 20 2 0 0 -9 -6 -20z m445 -10
c-9 -16 -18 -30 -21 -30 -2 0 2 14 11 30 9 17 18 30 21 30 2 0 -2 -13 -11 -30z
m348 13 c-7 -2 -21 -2 -30 0 -10 3 -4 5 12 5 17 0 24 -2 18 -5z m-818 -43 c-3
-5 -12 -10 -18 -10 -7 0 -6 4 3 10 19 12 23 12 15 0z m-150 -30 c9 -16 13 -30
11 -30 -3 0 -12 14 -21 30 -9 17 -13 30 -11 30 3 0 12 -13 21 -30z m585 0 c-6
-11 -13 -20 -16 -20 -2 0 0 9 6 20 6 11 13 20 16 20 2 0 0 -9 -6 -20z m-531
-30 c-13 -22 -32 -48 -43 -58 -21 -17 -21 -17 -3 5 11 12 16 27 11 34 -4 8 -3
10 4 5 6 -4 18 6 27 24 8 16 18 30 21 30 3 0 -5 -18 -17 -40z m-692 14 c-3 -3
-12 -4 -19 -1 -8 3 -5 6 6 6 11 1 17 -2 13 -5z m196 -1 c-7 -2 -21 -2 -30 0
-10 3 -4 5 12 5 17 0 24 -2 18 -5z m1390 0 c-13 -2 -35 -2 -50 0 -16 2 -5 4
22 4 28 0 40 -2 28 -4z m105 0 c-16 -2 -40 -2 -55 0 -16 2 -3 4 27 4 30 0 43
-2 28 -4z m145 0 c-7 -2 -19 -2 -25 0 -7 3 -2 5 12 5 14 0 19 -2 13 -5z m54 1
c-3 -3 -12 -4 -19 -1 -8 3 -5 6 6 6 11 1 17 -2 13 -5z m-707 -54 c-11 -22 -23
-40 -25 -40 -3 0 4 18 15 40 11 22 23 40 25 40 3 0 -4 -18 -15 -40z m-40 -70
c-6 -11 -13 -20 -16 -20 -2 0 0 9 6 20 6 11 13 20 16 20 2 0 0 -9 -6 -20z
m-1362 -137 c-22 -27 -34 -6 -14 26 7 11 10 11 17 0 4 -8 3 -19 -3 -26z m1027
-5 c16 -24 22 -38 14 -31 -15 12 -53 73 -46 73 2 0 17 -19 32 -42z m-55 28 c0
-2 -8 -10 -17 -17 -16 -13 -17 -12 -4 4 13 16 21 21 21 13z m-424 -138 l29
-33 -32 29 c-31 28 -38 36 -30 36 2 0 16 -15 33 -32z m1077 17 c-3 -9 -8 -14
-10 -11 -3 3 -2 9 2 15 9 16 15 13 8 -4z m-1332 -42 c-8 -15 -10 -15 -11 -2 0
17 10 32 18 25 2 -3 -1 -13 -7 -23z m110 0 c13 -16 12 -17 -3 -4 -10 7 -18 15
-18 17 0 8 8 3 21 -13z m204 -23 c10 -11 16 -20 13 -20 -3 0 -13 9 -23 20 -10
11 -16 20 -13 20 3 0 13 -9 23 -20z m-354 -133 c-5 -5 -17 -7 -26 -3 -13 5
-14 10 -4 28 11 21 12 21 25 3 9 -12 11 -22 5 -28z m1519 6 c0 -15 -36 -18
-44 -4 -4 5 3 7 14 4 11 -3 20 0 20 6 0 6 -8 11 -17 11 -15 0 -16 2 -3 10 15
9 30 -4 30 -27z m-233 -38 c0 -8 -4 -12 -9 -9 -5 3 -6 10 -3 15 9 13 12 11 12
-6z m122 -107 c18 -28 8 -21 -34 24 -34 35 -35 38 -9 17 17 -13 37 -32 43 -41z
m-1125 31 c-9 -15 -34 -10 -28 5 3 8 12 12 20 9 8 -3 11 -9 8 -14z m941 1 c3
-6 -1 -7 -9 -4 -18 7 -21 14 -7 14 6 0 13 -4 16 -10z m-894 -43 c-10 -9 -11
-8 -5 6 3 10 9 15 12 12 3 -3 0 -11 -7 -18z m107 -39 c-6 -18 -28 -21 -28 -4
0 9 7 16 16 16 9 0 14 -5 12 -12z m73 -33 c5 4 6 -1 3 -9 -8 -20 -24 -11 -23
12 0 11 2 12 6 4 2 -6 9 -10 14 -7z m262 -138 c-15 -18 -39 -42 -53 -52 -14
-10 -3 5 25 34 56 58 71 68 28 18z m-76 -39 c-3 -8 -6 -5 -6 6 -1 11 2 17 5
13 3 -3 4 -12 1 -19z m93 2 c0 -5 -2 -10 -4 -10 -3 0 -8 5 -11 10 -3 6 -1 10
4 10 6 0 11 -4 11 -10z m-184 -39 c0 -16 -3 -17 -14 -9 -12 10 -7 19 13 28 1
0 1 -9 1 -19z m278 -11 c-6 -6 -10 -3 -10 10 0 13 4 16 10 10 7 -7 7 -13 0
-20z"/>
</g>
</svg>
